/* XPM */
static char *b6cee09a199642c2d12224d5459fb31flI11QHagjSVPi6Gz[] = {
/* columns rows colors chars-per-pixel */
"50 50 139 2 ",
"   c #30202D",
".  c #3F2832",
"X  c #492C33",
"o  c #492D33",
"O  c #4B3B3D",
"+  c #4C3C3D",
"@  c #523034",
"#  c #593335",
"$  c #573932",
"%  c #583932",
"&  c #603636",
"*  c #633836",
"=  c #643837",
"-  c #663937",
";  c #673937",
":  c #6D3C38",
">  c #703D38",
",  c #743F39",
"<  c #434D37",
"1  c #574038",
"2  c #584138",
"3  c #524A3E",
"4  c #6F4B3B",
"5  c #754536",
"6  c #744636",
"7  c #785031",
"8  c #7E513D",
"9  c #7D573E",
"0  c #6E633B",
"q  c #3E734E",
"w  c #3F7750",
"e  c #4B4248",
"r  c #58444D",
"t  c #714E4F",
"y  c #457B4F",
"u  c #407750",
"i  c #437E56",
"p  c #447E56",
"a  c #6F5E65",
"s  c #605F68",
"d  c #706D78",
"f  c #854C38",
"g  c #854D38",
"h  c #8B612C",
"j  c #A86937",
"k  c #B06F37",
"l  c #8B5D40",
"z  c #8B7940",
"x  c #8A7A40",
"c  c #458258",
"v  c #47865A",
"b  c #47875A",
"n  c #4A8859",
"m  c #48885C",
"M  c #498A5D",
"N  c #4A8C5E",
"B  c #548A50",
"V  c #5C9151",
"C  c #57965D",
"Z  c #5B9B5E",
"A  c #5E9D5D",
"S  c #6B8343",
"D  c #639952",
"F  c #619954",
"G  c #609F5C",
"H  c #63A15B",
"J  c #66A35A",
"K  c #64A15C",
"L  c #69A559",
"P  c #69A55A",
"I  c #6CA759",
"U  c #6EA858",
"Y  c #6FA858",
"T  c #72A854",
"R  c #74AC57",
"E  c #7AB055",
"W  c #4B8E60",
"Q  c #4D9262",
"!  c #509361",
"~  c #529660",
"^  c #559760",
"/  c #729C63",
"(  c #A58938",
")  c #DB9235",
"_  c #E49935",
"`  c #FDAE34",
"'  c #FEBC3F",
"]  c #AE8E4A",
"[  c #B9934D",
"{  c #B49E4E",
"}  c #B99660",
"|  c #A59B73",
" . c #B99974",
".. c #BA9975",
"X. c #B99A7E",
"o. c #C29B57",
"O. c #D2A146",
"+. c #B0D757",
"@. c #C4C95C",
"#. c #FDCA4A",
"$. c #FECA4A",
"%. c #FED24F",
"&. c #E5CE5B",
"*. c #E6CF5B",
"=. c #FECB65",
"-. c #FEC774",
";. c #E6D378",
":. c #FDE761",
">. c #FEE761",
",. c #FEEA74",
"<. c #788F97",
"1. c #68A29A",
"2. c #968B83",
"3. c #9F9398",
"4. c #B99C88",
"5. c #AF9B91",
"6. c #B99D92",
"7. c #B99F9C",
"8. c #C2B384",
"9. c #C2A69C",
"0. c #95DCB3",
"q. c #E5D482",
"w. c #FEDA8C",
"e. c #E6D89F",
"r. c #FDD699",
"t. c #FED699",
"y. c #FEEB8F",
"u. c #FDF09C",
"i. c #CADBB0",
"p. c #E7D9A0",
"a. c #E6DBB3",
"s. c #F4EFA5",
"d. c #FEF1A6",
"f. c #FFE0B3",
"g. c #FFEFBE",
"h. c #E6E3E5",
"j. c #E7E4E5",
"k. c #FEFFFE",
"l. c white",
/* pixels */
"Q Q Q Q Q Q Q Q Q Q Q Q Q Q Q Q Q Q Q Q Q Q Q Q Q Q Q Q Q Q Q Q Q Q Q Q Q Q Q Q Q Q Q Q Q Q Q Q Q Q ",
"Q Q Q Q Q Q Q Q Q Q Q Q Q Q Q Q Q Q Q Q Q Q Q Q Q Q Q Q Q Q Q Q Q Q M c Q Q Q Q Q Q Q Q Q Q Q Q Q Q ",
"Q Q Q Q Q Q Q Q Q Q Q Q Q Q Q Q Q Q Q Q Q Q Q Q Q Q Q Q Q Q Q Q Q Q i u Q Q Q Q Q Q Q Q Q Q Q Q Q Q ",
"Q Q Q Q Q Q Q Q Q Q Q Q Q Q Q Q Q Q Q Q Q Q Q Q Q Q Q Q Q Q Q Q M u b M u v Q Q Q Q Q Q Q Q Q Q Q Q ",
"Q Q Q Q Q Q Q Q Q Q Q Q Q Q Q Q Q Q Q Q Q Q Q Q Q Q Q Q Q Q Q Q W i c v p n Q Q Q Q Q Q Q Q Q Q Q Q ",
"Q Q Q Q Q Q Q Q Q Q Q Q Q Q Q Q Q Q Q Q Q Q Q Q Q Q Q Q Q Q Q Q Q Q i w Q Q Q Q Q Q Q Q Q Q Q Q Q Q ",
"Q Q Q Q Q Q Q Q Q Q Q Q Q Q Q Q Q Q Q Q Q Q Q Q Q Q Q Q Q Q Q Q Q Q N N Q Q Q Q Q Q Q Q Q Q Q Q Q Q ",
"Q Q Q Q Q Q Q Q Q Q Q Q Q Q Q Q Q Q Q Q Q Q Q Q Q Q Q Q Q Q Q Q Q Q Q Q Q Q Q Q Q Q Q Q Q Q Q Q Q Q ",
"Q Q Q Q Q Q Q Q Q Q Q Q Q Q Q Q Q Q Q Q Q Q Q Q Q Q Q Q Q Q Q Q Q Q Q Q Q Q Q Q Q Q Q Q Q Q Q Q Q Q ",
"Q Q Q Q Q Q Q Q Q Q Q Q Q Q Q Q Q Q Q Q Q Q Q Q Q Q Z L ! Q Q Q Q Q Q Q Q Q Q Q Q Q Q Q Q Q Q Q Q Q ",
"Q Q Q Q Q Q Q Q Q Q Q Q Q Q Q Q Q Q Q Q Q Q Q Q Q Q H E Z Q Q Q Q Q Q Q Q Q Q Q Q Q Q Q Q Q Q Q Q Q ",
"Q Q Q Q Q Q Q Q Q Q Q Q Q Q Q Q Q Q Q Q Q Q Q Q Q Q H E E L Q Q Q Q Q Q Q Q Q Q Q Q Q Q Q Q Q Q Q Q ",
"Q Q Q Q Q Q Q Q Q Z G Q Q Q Q Q Q Q Q Q Q Q Q Q Q Q K E E L Q Q ^ K ^ Q Q Q Q Q Q Q Q Q Q Q Q Q Q Q ",
"Q Q Q Q Q Q Q Q Q L R Q Q Q Q Q Q Q Q Q Q Q Q Q Q Q K E E L Q Q ^ E A Q Q Q Q Q Q Q Q Q Q Q Q Q Q Q ",
"Q Q Q Q Q Q Q Q Q L R Q Q Q Q Q Q Q Q Q Q Q Q Q Q Q Q Q R D w D E E A Q Q Q Q Q Q Q Q Q Q Q Q Q Q Q ",
"Q Q Q Q Q Q Q Q Q L R Q ^ A Q Q Q Q Q Q Q Q Q Q Q Q Q Q F V B T T D C Q Q Q Q Q Q Q Q Q Q Q Q Q Q Q ",
"Q Q Q Q Q Q Q Q Q L R Q K E Q Q Q Q Q Q Q Q Q Q Q Q Q Q q B E E D w v Q Q Q Q Q Q Q Q Q Q Q Q Q Q Q ",
"Q Q Q Q Q Q Q Q Q L R Q H E Q Q Q Q Q Q Q Q Q Q Q Q Q Q Q n y y c W W Q Q Q Q Q Q Q Q Q Q Q Q Q Q Q ",
"Q Q Q Q Q Q Q Q Q K L Q H E Q t.9.} X. .[ [ [ [ [ [ [ [ [ [  .7.4.o.t.Q Q Q Q Q Q Q Q Q Q Q Q Q Q Q ",
"Q Q Q Q Q Q Q Q Q Q Q Q H E Q ` 6 & & & & & & & & & & & & & * # = 6 ` Q Q Q Q Q Q Q Q Q Q Q Q Q Q Q ",
"Q Q Q Q Q Q Q Q Q Q Q Q ! ^ Q ` % . . . . . . . . . . . X . . . . $ ` Q Q Q Q Q Q Q Q Q Q Q Q Q Q Q ",
"Q Q Q Q Q Q Q Q Q Q Q Q Q Q Q ` $ . . . . . . . . . . . . . . . . $ ` Q Q Q Q Q Q Q Q Q Q Q Q Q Q Q ",
"Q Q Q Q Q Q Q Q Q Q Q Q Q Q Q ` $ . . . . . . . . . . . . . . . X @ ` Q Q Q Q Q Q Q Q Q Q Q Q Q Q Q ",
"L Z Q Q Q Q Q Q Q Q Q Q Q Q Q ` f , @ . . . . . . . . . . . X X 5 f ` Q Q Q Q Q Q Q Q Q Q Q Q Q Q Q ",
"E H Q Q Q Q Q Q Q Q Q Q Q Q Q ` f > : : : : : : ; : : : : : : > , f ` Q Q Q Q Q Q Q Q Q Q Q Q Q Q Q ",
"Q H E ~ Q Q Q Q Q Q Q Q Q Q Q ` ) ) ) ) ) ) ) ) ) ) ) ) ) ) ) ) ) _ ` Q Q Q Q Q Q Q Q Q Q Q Q Q J E ",
"H H H ! Q Q Q Q Q Q Q Q Q Q Q ` k j j j j j j j j j j j j j j j j k ` Q Q Q Q Q Q Q Q Q Q Q Q Q ^ K ",
"E H Q Q Q Q Q Q Q Q Q Q Q Q Q $.f 5 ; # # # t 6.[ S 5.} 9 # # & 6 f $.Q Q Q Q Q Q Q Q Q Q Q Q Q ! ! ",
"~ Q Q Q Q Q Q Q Q Q Q Q Q Q Q :.4 # X a 3.<.1.d.>.+.s.,.8.| : X # 4 :.Q Q Q Q Q Q Q Q Q Q Q Q Q Q Q ",
"Q Q Q Q Q Q Q Q Q Q Q Q Q Q Q u.O 7 e 2.f.i.0.y.%.%.%.$.w.-.( <   + u.Q Q Q Q Q Q Q Q Q Q Q Q Q Q ! ",
"Q Q Q Q Q Q Q Q Q Q Q Q Q Q Q k.s O.2.| ' ' =.g.' ' ' ' ' ' @./ 3 d k.Q Q Q Q Q Q Q Q Q Q Q Q Q Q Q ",
"Q Q Q Q Q Q Q Q Q Q Q Q Q Q Q k.h.q.a.p.*.*.*.*.*.*.&.&.&.&.p.p.;.j.k.Q Q Q Q Q Q Q Q Q Q Q Q Q Q Q ",
"Q Q Q Q Q Q Q Q Q Q Q Q Q Q Q k.r X . . . . . . . . . . . . . . . r k.Q Q Q Q Q Q Q Q Q Q Q Q Q Q Q ",
"Q Q Q Q Q Q Q Q Q Q Q Q Q Q Q >.2 ; 5 > , > , , , , , , , , , , ; % :.Q Q Q Q Q Q Q Q Q Q Q Q Q Q Q ",
"Q Q Q Q Q Q Q Q Q Q Q Q Q Q p >.2 ; , , , , , , , , , , , , , , ; 2 :.Q Q Q Q Q Q Q Q Q Q Q Q Q Q Q ",
"Q Q Q Q Q Q Q Q Q Q Q Q Q Q u >.% : , , , , , , , , , , , , , , ; 2 :.Q Q Q Q Q Q Q Q Q Q Q Q Q Q Q ",
"Q Q Q Q Q Q Q Q Q Q Q Q Q Q Q 0 { t , , , , , 5 , , , , , , , , l { 0 Q Q Q Q Q Q Q Q Q Q Q Q Q Q Q ",
"Q Q Q Q Q Q Q Q Q Q Q Q Q Q Q h z ] [  .7.7.7.7.7.6.7.7.7.X. .X.] z h Q Q Q Q H C Q Q Q Q Q Q Q Q Q ",
"Q Q Q Q Q Q Q Q Q Q Q Q Q Q Q Q Q Q Q Q Q Q Q Q Q Q Q Q Q Q Q Q Q Q Q Q Q Q Q E U Q Q Q Q Q Q Q Q Q ",
"Q Q Q Q Q Q Q Q Q Q Q Q Q Q Q Q Q Q Q Q Q Q Q Q Q Q Q Q Q Q Q Q Q Q Q ! E H Q E L Q Q Q Q Q Q Q Q Q ",
"Q Q Q Q Q Q Q Q Q Q Q Q Q Q Q Q Q Q Q Q Q Q Q Q Q Q Q Q Q Q Q Q Q Q Q ^ E H Q E L Q Q Q Q Q Q Q Q Q ",
"Q Q Q Q Q Q Q Q Q Q Q Q Q Q Q Q Q Q Q Q Q Q Q Q Q Q Q Q Q Q Q Q Q Q Q ~ E H Q E P Q Q Q Q Q Q Q Q Q ",
"Q Q Q Q Q Q Q Q Q Q Q Q Q Q Q Q Q Q Q Q Q Q Q Q Q Q Q Q Q Q Q Q Q Q Q ~ E H Q ~ ~ Q Q Q Q Q Q Q Q Q ",
"Q Q Q Q Q Q Q Q Q Q Q Q Q Q Q Q Q Q Q Q Q Q Q Q Q Q Q Q Q Q Q Q Q Q Q ~ U A Q Q Q Q Q Q Q Q Q Q Q Q ",
"Q Q Q Q Q Q Q Q Q Q Q Q Q Q Q Q Q Q Q Q Q Q Q Q Q Q Q Q Q Q Q Q Q Q Q Q Q Q Q Q Q Q Q Q Q Q Q Q Q Q ",
"Q Q Q Q Q Q Q Q Q Q Q Q Q Q Q Q Q Q Q Q J U Q Q Q Q Q Q Q Q Q Q Q Q Q Q Q Q Q Q Q Q Q Q Q Q Q Q Q Q ",
"Q Q Q Q Q Q Q Q Q Q Q Q Q Q Q Q Q Q Q ^ L U ^ ~ Q Q Q Q Q Q Q Q Q Q Q Q Q Q Q Q Q Q Q Q Q Q Q Q Q Q ",
"Q Q Q Q Q Q Q Q Q Q Q Q Q Q Q Q Q Q Z E ^ ^ E ^ Q Q Q Q Q Q Q Q Q Q Q Q Q Q Q Q Q Q Q Q Q Q Q Q Q Q ",
"Q Q Q Q Q Q Q Q Q Q Q Q Q Q Q Q Q Q ! G L L A ! Q Q Q Q Q Q Q Q Q Q Q Q Q Q Q Q Q Q Q Q Q Q Q Q Q Q ",
"Q Q Q Q Q Q Q Q Q Q Q Q Q Q Q Q Q Q Q Q U R Q Q Q Q Q ! Q Q Q ! Q Q ! Q Q Q Q ! ! Q Q Q Q ! ! Q Q Q "
};
