/* XPM */
static char *c9a763973ea94a26df9377f428649478sEx9XA7AkwpWeohs[] = {
/* columns rows colors chars-per-pixel */
"50 50 50 1 ",
"  c #743F39",
". c #75403A",
"X c #3E734E",
"o c #3F7750",
"O c #457B4F",
"+ c #407750",
"@ c #417B53",
"# c #437E56",
"$ c #B86F50",
"% c #448156",
"& c #498254",
"* c #458258",
"= c #47875A",
"- c #4A8859",
"; c #48885C",
": c #498A5D",
"> c #4A8C5E",
", c #548A50",
"< c #5C9151",
"1 c #57965D",
"2 c #58995F",
"3 c #5B9B5E",
"4 c #5E9D5D",
"5 c #639952",
"6 c #609F5C",
"7 c #6BA153",
"8 c #6FA553",
"9 c #63A15B",
"0 c #66A35A",
"q c #64A15C",
"w c #69A559",
"e c #68A55A",
"r c #6EA958",
"t c #72A854",
"y c #74AC57",
"u c #75AC58",
"i c #7AB055",
"p c #7BB056",
"a c #4B8E60",
"s c #4C9060",
"d c #4D9262",
"f c #4E9263",
"g c #509361",
"h c #509461",
"j c #529660",
"k c #559760",
"l c #C28569",
"z c #124E89",
"x c #FEFFFE",
"c c white",
/* pixels */
"dddddddddddddddddddddddddddddddddddsdddddddddddddd",
"dddddddddddddddddddddddddddddddddd:*dddddddddddddd",
"ddddddddddddddddddddddddddddddddsd#odsfddddddddddd",
"dddddddddddddddddddddddddddddddd:o=:o:sddddddddddd",
"dddddddddddddddddddddddddddddddds#*=%-dddddddddddd",
"dddddddddddddddddddddddddddddddddd#osddddddddddddd",
"dddddddddddddddddddddddddddddddddd>:dddddddddddddd",
"dddddddddddddddddddddddddddddddddddddddddddddddddf",
"dddddddddddddddddddddddddcccdddddddddddddddddddddf",
"ddddddddddddddddddddddddddccdddddddddddddddddddddf",
"dddddddddddddddddddddddddd.cchdddddddddddddddddddf",
"dddddddddddddddddddddddddl.ccwdddddddddddddddddddf",
"ddddddddd36dddddddddddddsl.ccwsdde1ddddddddddddddf",
"dddddddddwydddddddddddddsllccwdd3i3ddddddddddddddf",
"dddddddddwyddddddddddddddd.cc5X7ii6ddddddddddddddf",
"dddddddddwydk4ddddddddddddccc<,8t51ddddddddddddddf",
"dddddddddwyd9iddddddddddddccX,ii5o-ddddddddddddddf",
"dddddddddwyd9$$$$$$$$dddscccs=O@%sdddddddddddddddf",
"ddddddddd9ws$id$dd$dd$dddccsd-@@%ddddddddddddddddf",
"dddddddddddd$$$ $$.$$.$ddc sdddddddddddddddddddddf",
"dddddddddddd$   ...  l$sdd ddddddddddddsdddddddddf",
"dddddddddddd$llllllllll$$$ $$$$$$$$$dddsdddddddddf",
"dddddddddddd$llllllllllsd$ d$dd$sd$$$$$$$ddddddddf",
"w3dddddddddd$$$$$$$$$$l l  l.ll.ll.$dd$sd$$ddddddf",
"i9dddddddddd$ll ll lll$l            ll ll$$ddddddf",
"d9ikdddddddd$$$$$$$$ ll$$$$$$$$$$$$$$$$$$$ddddddwi",
"9q9ddddddddd$$       $$$l$ll$ll$ll$$ll$ll$dddddd39",
"i9dddddddddd$$         $$$$$$$$$$$$$$$$$$dddddddff",
"2ddddddddddd$$                      ...$ddddddddff",
"dddddddddddd$$                      ...$dddddddddf",
"ddddddddddddd$                      .$$ddddddddddf",
"dddddddddddddd                       zdddddddddddf",
"ddddddddddddddz ..    ..    ..      zddddddddddddf",
"dddddddddddddddz..    ..    ..    zzzddddddddddddf",
"dddddddddddddd%%zzzzzzzzzzzzzzzzzzzzdddddddddddddf",
"ddddddddddddda+#:##dsszzzzzzzzddddssdddddddddddddf",
"ddddddddddddddd=Xzzzddddssddddddzzzzdddddddddddddf",
"ddddddddddddddd>%addddddddddddddddddddd9kddddddddf",
"dddddddddddddddddddddddddddddddddddsdddiwfdddddddf",
"ddddddddddddddddddddddddddddddddddd1i9diwfdddddddf",
"dddddddddddddddddddddddddddddddddddji9diwfdddddddf",
"dddddddddddddddddddddddddddddddddddji9diefdddddddf",
"dddddddddddddddddddddddddddddddddddji9d1dddddddddf",
"dddddddddddddddddddddddddddddddddddjr6dddddddddddf",
"dddddddddddddddddddddddddddddddddddddddddddddddddf",
"dddddddddddddddddddd9rdddddddddddddddddddddddddddf",
"dddddddddddddddddddkwyghdddddddddddddddddddddddddf",
"dddddddddddddddddd4pkdi4dddddddddddddddddddddddddf",
"ddddddddddddddddddd6ww4kfdddddfdddddddddddddddffdf",
"fdffffffffffffffffffruffffddddddddfdddfdffdjddfddf"
};
