/* XPM */
static char *e727b91be1604c70c2d2a742c98f3cd2SNvX6U7ix0ZFtpLD[] = {
/* columns rows colors chars-per-pixel */
"50 50 40 1 ",
"  c #3E734E",
". c #3F7750",
"X c #457B4F",
"o c #407750",
"O c #417B53",
"+ c #437E56",
"@ c #447E56",
"# c #498254",
"$ c #458258",
"% c #47875A",
"& c #4A8859",
"* c #48885C",
"= c #4A8C5E",
"- c #548A50",
"; c #5C9151",
": c #57965D",
"> c #58995F",
", c #5B9B5E",
"< c #5E9D5D",
"1 c #639952",
"2 c #619954",
"3 c #609F5C",
"4 c #63A15B",
"5 c #66A35A",
"6 c #64A15C",
"7 c #69A559",
"8 c #68A55A",
"9 c #69A55A",
"0 c #6EA958",
"q c #72A854",
"w c #74AC57",
"e c #7AB055",
"r c #4B8E60",
"t c #4F9361",
"y c #4D9262",
"u c #4E9262",
"i c #509361",
"p c #529660",
"a c #539660",
"s c #559760",
/* pixels */
"yyyyyyyyyyyyyyyyyyyyyyyyyyyyyyyyyyyyyyyyyyyyyyyyyy",
"yyyyyyyyyyyyyyyyyyyyyyyyyyyyyyyyyy*%yyyyyyyyyyyyyy",
"yyyyyyyyyyyyyyyyyyyyyyyyyyyyyyyyyy+oyyyyyyyyyyyyyy",
"yyyyyyyyyyyyyyyyyyyyyyyyyyyyyyyy*o%*o$yyyyyyyyyyyy",
"yyyyyyyyyyyyyyyyyyyyyyyyyyyyyyyyr+$%@*yyyyyyyyyyyy",
"yyyyyyyyyyyyyyyyyyyyyyyyyyyyyyyyyy+Oyyyyyyyyyyyyyy",
"yyyyyyyyyyyyyyyyyyyyyyyyyyyyyyyyyy=*yyyyyyyyyyyyyy",
"yyyyyyyyyyyyyyyyyyyyyyyyyyyyyyyyyyiyyyyyyyyyyyyyyy",
"yyyyyyyyyyyyyyyyyyyyyyyyyyyyyyyyyyyyyyyyyyyyyyyyyy",
"yyyyyyyyyyyyyyyyyyyyyyyyyy,7iyyyyyyyyyyyyyyyyyyyyy",
"yyyyyyyyyyyyyyyyyyyyyyyyyy4e,yyyyyyyyyyyyyyyyyyyyy",
"yyyyyyyyyyyyyyyyyyyyyyyyyy4ee7yyyyyyyyyyyyyyyyyyyy",
"yyyyyyyyy,3yyyyyyyyyyyyyyy6ee7yya3syyyyyyyyyyyyyyy",
"yyyyyyyyy7wyyyyyyyyyyyyyyy6ee7yy,e<yyyyyyyyyyyyyyy",
"yyyyyyyyy7wyyyyyyyyyyyyyyyyyw1.1ee<yyyyyyyyyyyyyyy",
"yyyyyyyyy7wys<yyyyyyyyyyyyyy2;-qq1:yyyyyyyyyyyyyyy",
"yyyyyyyyy7wy4eyyyyyyyyyyyyyyo-ee1o*yyyyyyyyyyyyyyy",
"yyyyyyyyy7wy4eyyyyyyyyyyyyyy=&XX#rriyyyyyyyyyyyyyy",
"yyyyyyyyy45y4eyyyyyyyyyyyyyyy*OO$yyyyyyyyyyyyyyyyy",
"yyyyyyyyyyyy4eyyyyyyyyyyyyyyyyyyyyyyyyyyyyyyyyyyyy",
"yyyyyyyyyyyys,yyyyyyyyyyyyyyyyyyyyyyyyyyyyyyyyyyyy",
"yyyyyyyyyyyyyyyyyyyyyyyyyyyyyyyyyyyyyyyyyyyyyyyyyy",
"yyyyyyyyyyyyyyyyyyyyyyyyyyyyyyyyyyyyyyyyyyyyyyyyyy",
"7,yyyyyyyyyyyyyyyyyyyyyyyyyyyyyyyyyyyyyyyyyyyyyyyy",
"e6yyyyyyyyyyyyyyyyyyyyyyyyyyyyyyyyyyyyyyyyyyyyyyyy",
"y4eayyyyyyyyyyyyyyyyyyyyyyyyyyyyyyyyyyyyyyyyyyyy7e",
"444yyyyyyyyyyyyyyyyyyyyyyyyyyyyyyyyyyyyyyyyyyyyys6",
"e4yyyyyyyyyyyyyyyyyyyyyyyyyyyyyyyyyyyyyyyyyyyyyyii",
"aayyyyyyyyyyyyyyyyyyyyyyyyyyyyyyyyyyyyyyyyyyyyyyyy",
"yyyyyyyyyyyyyyyyyyyyyyyyyyyyyyyyyyyyyyyyyyyyyyyyyy",
"yyyyyyyyyyyyyyyyyyyyyyyyyyyyyyyyyyyyyyyyyyyyyyyyyy",
"yyyyyyyyyyyyyyyyyyyyyyyyyyyyyyyyyyyyyyyyyyyyyyyyyy",
"yyyyyyyyyyyyyyyr%yyyyyyyyyyyyyyyyyyyyyyyyyyyyyyyyy",
"yyyyyyyyyyyyyyy%.ryyyyyyyyyyyyyyyyyyyyyyyyyyyyyyyy",
"yyyyyyyyyyyyyy+$%@%yyyyyyyyyyyyyyyyyyyyyyyyyyyyyyy",
"yyyyyyyyyyyyyy.+rOOyyyyyyyyyyyyyyyyyyyyyyyyyyyyyyy",
"yyyyyyyyyyyyyyy%.rryyyyyyyyyyyyyyyyyyyyyyyyyyyyyyy",
"yyyyyyyyyyyyyyy*$yyyyyyyyyyyyyyyyyyyyyy6syyyyyyyyy",
"yyyyyyyyyyyyyyyyyyyyyyyyyyyyyyyyyyyyyyye0yyyyyyyyy",
"yyyyyyyyyyyyyyyiyyyyyyyyyyyyyyyyyyy:e3ye8yyyyyyyyy",
"yyyyyyyyyyyyyyyyyyyyyyyyyyyyyyyyyyyae6ye8yyyyyyyyy",
"yyyyyyyyyyyyyyyyyyyyyyyyyyyyyyyyyyyse3ye8yyyyyyyyy",
"yyyyyyyyyyyyyyyyyyyyyyyyyyyyyyyyyyyae6ysiyyyyyyyyy",
"yyyyyyyyyyyyyyyyyyyyyyyyyyyyyyyyyyya0<yyyyyyyyyyyy",
"yyyyyyyyyyyyyyyyyyyyyyyyyyyyyyyyyyyyyyyyyyyyyyyyyy",
"yyyyyyyyyyyyyyyyyyyy50yyyyyyyyyyyyyyyyyyyyyyyyyyyy",
"yyyyyyyyyyyyyyyyyyaa70sayyyyyyyyyyyyyyyyyyyyyyyyyy",
"yyyyyyyyyyyyyyyyyysessesyyyyyyyyyyyyyyyyyyyyyyyyyy",
"yyyyyyyyyyyyyyyyyyi<78<syyyyyyyyyyyyyyyyyyyyyyyyyy",
"yyyyyyyyyyyyyyyyyyyy0wyyyyyyyyyiyyyyyyyiiyyy=iyayy"
};
