/* XPM */
static char *_032f0b59d3e4783c3cc33a7ddf7e872ze5rBbhBEIUXU7Sr[] = {
/* columns rows colors chars-per-pixel */
"50 50 61 1 ",
"  c #181425",
". c #181526",
"X c #3E734E",
"o c #3F754F",
"O c #3F7750",
"+ c #497E4F",
"@ c #407750",
"# c #417952",
"$ c #427D54",
"% c #447F56",
"& c #448056",
"* c #4A8152",
"= c #458258",
"- c #47855A",
"; c #48875B",
": c #4A8C5E",
"> c #518650",
", c #548A50",
"< c #5E9351",
"1 c #55955C",
"2 c #55975F",
"3 c #55985F",
"4 c #5A9B5E",
"5 c #5B9B5E",
"6 c #5D9D5D",
"7 c #5E9D5D",
"8 c #639952",
"9 c #619854",
"0 c #699F54",
"q c #609E5C",
"w c #619F5C",
"e c #6EA453",
"r c #62A05B",
"t c #64A15B",
"y c #66A35B",
"u c #67A45A",
"i c #62A05C",
"p c #69A459",
"a c #6CA759",
"s c #6EA858",
"d c #6FA958",
"f c #70A654",
"g c #76AC54",
"h c #77AE56",
"j c #7AAF55",
"k c #7AB055",
"l c #4C8F60",
"z c #4C9161",
"x c #4D9262",
"c c #4F9263",
"v c #4F9461",
"b c #509461",
"n c #549760",
"m c #E4A672",
"M c #5A6988",
"N c #8999B2",
"B c #8B9BB4",
"V c #E8D2A8",
"C c #EAD4AA",
"Z c #FDFDFD",
"A c white",
/* pixels */
"xxxxxxxxxxxxxxxxxxxxxxxxxxxxxxxxxxxxxxxxxxxxxxxxxx",
"xxxxxxxxxxxxxxxxxxxxxxxxxxxxxxxxxx:-xxxxxxxxxxxxxx",
"xxxxxxxxxxxxxxxxxxxxxxxxxxxxxxxxxx%@xxxxxxxxxxxxxx",
"xxxxxxxxxxxxxxxxxxxxxxxxxxxxxxxx:@=:@=xxxxxxxxxxxx",
"xxxxxxxxxxxxxxxxxxxxxxxxxxxxxxxx:$-;%;xxxxxxxxxxxx",
"xxxxxxxxxxxxxxxxxxxxxxxxxxxxxxxxxx$@xxxxxxxxxxxxxx",
"xxxxxxxxxxxxxxxxxxxxxxxxxxxxxxxxxx::xxxxxxxxxxxxxx",
"xxxxxxxxxxxxxxxxxxxxxxxxxxxxxxxxxxxxxxxxxxxxxxxxxx",
"xxxxxxxxxxxxxxxxxxxxxxxxxxxxxxxxxxxxxxxxxxxxxxxxxx",
"xxxxxxxxxxxxxxxxxxxxxxxxxx5pvxxxxxxxxxxxxxxxxxxxxx",
"xxxxxxxxxxxxxxxxxxxxxxxxxxrk3bxxxxxxxxxxxxxxxxxxxx",
"xxxxxxxxxxxxxxxxxxxxxxxxxx7kkpxxxxxxxxxxxxxxxxxxxx",
"xxxxxxxxx5ixxxxxxxxxxxxxxxrjkpxxbwnlxxxxxxxxxxxxxx",
"xxxxxxxxxphxxxxxxxxxxxxxxx7jkaxxnjqcxxxxxxxxxxxxxx",
"xxxxxxxxxphxxxxxxxxxxxxxxxxxh0@0hj7xxxxxxxxxxxxxxx",
"xxxxxxxxxphx37xxxxxxxxxxxxxx9<,fg8nxxxxxxxxxxxxxxx",
"xxxxxxxxxphxtkbxxxxxxx    z  >jjfO=xxxxxxxxxxxxxxx",
"xxxxxxxxxphxrkbxxxxxx         +++llxxxxxxxxxxxxxxx",
"xxxxxxxxxisxtkbxxxxx     AAA   #%xxxxxxxxxxxxxxxxx",
"xxxxxxxxxxxvrkbxxxx     AAAAA   xxxxxxxxxxxxxxxxxx",
"xxxxxxxxxxxx34xxx       A A Z   .xxxxxxxxxxxxxxxxx",
"xxxxxxxxxxxxxxxxx        AAZ    .xxxxxxxxxxxxxxxxx",
"xzxxxxxxxxxxxxxxx        A Z    .lxxxxxxxxxxxxxxxx",
"u5xxxxxxxxxxxxxxx               .xxxxxxxxxxxxxxxxx",
"kixxxxxxxxxxxxxxxxxx mCCVVCCV xxxxxxxxxxxxxxxxxxxx",
"xrk3xxxxxxxxxxxxxxxx mC  CCV  xxxxxxxxxxxxxxxxxxwj",
"irubxxxxxxxxxxxxxxxx mC  CCV  xxxxxxxxxxxxxxxxxxny",
"ktxxxxxxxxxxxxxxxxxx mCCCCCCV xxxxxxxxxxxxxxxxxxbb",
"vvxxxxxxxxxxxxxxxxxx mCCCCCCV xxxxxxxxxxxxxxxxxxxx",
"xxxxxxxxxxxxxxxxxxxx mCCCCCCV xxxxxxxxxxxxxxxxxxxb",
"xxxxxxxxxxxxxxxxxxxx BBBBBBBN xxxxxxxxxxxxxxxxxxxx",
"xxxxxxxxxxxxxxxxxxxx MMMMMMMM xxxxxxxxxxxxxxxxxxxx",
"xxxxxxxxxxxxxxxx:xxx MMMMMMMM xxxxxxxxxxxxxxxxxxxx",
"xxxxxxxxxxxxxxx-X:xx BN    BN xxxxxxxxxxxxxxxxxxxx",
"xxxxxxxxxxxxxx&&-%=x N xxx N xxxxxxxxxxxxxxxxxxxxx",
"xxxxxxxxxxxxxxo&x#$x  xxxx  xxxxxxxxxxxxxxxxxxxxxx",
"xxxxxxxxxxxxxxx-X:xxxxxxxxxxxxxxxxxxxxxxxxxxxxxxxx",
"xxxxxxxxxxxxxxx:=:xxxxxxxxxxxxxxxxxxxxxq5xxxxxxxxx",
"xxxxxxxxxxxxxxxxxxxxxxxxxxxxxxxxxxxxxxxhpxxxxxxxxx",
"xxxxxxxxxxxxxxxxxxxxxxxxxxxxxxxxxxxxkqxkpxxxxxxxxx",
"xxxxxxxxxxxxxxxxxxxxxxxxxxxxxxxxxxxbkixjpxxxxxxxxx",
"xxxxxxxxxxxxxxxxxxxxxxxxxxxxxxxxxxxbkqxkpxxxxxxxxx",
"xxxxxxxxxxxxxxxxxxxxxxxxxxxxxxxxxxxbkixnbxxxxxxxxx",
"xxxxxxxxxxxxxxxxxxxxxxxxxxxxxxxxxxxbs7xxvxxxxxxxxx",
"xxxxxxxxxxxxxxxxxxxxxxxxxxxxxxxxxxxxxxxxxxxxxxxxxx",
"xxxxxxxxxxxxxxxxxxxxqpxxxxxxxxxxxxxxxxxxxxxxxxxxxx",
"xxxxxxxxxxxxxxxxxxbbpd2xxxxxxxxxxxxxxxxxxxxxxxxxxx",
"xxxxxxxxxxxxxxxxxx5k7bkqxxxxxxxxxxxxxxxxxxxxxxxxlc",
"xxxxxxxxxxxxxxxxxx37trkkxxxxxxxxxxxxxxxxxxbxxxxxxx",
"xxxxxxxxxxxxxxxxxxxxskxxxxxxxxxxxxbxxxxbbxxxxxxxbb"
};
