/* XPM */
static char *ff9349911eb94220a4fc77c9a3078fd2dJrURikAzO0t4gu0[] = {
/* columns rows colors chars-per-pixel */
"50 50 97 2 ",
"   c #457B4F",
".  c #458258",
"X  c #4B8A5B",
"o  c #4A8C5E",
"O  c #58935F",
"+  c #58945F",
"@  c #58995F",
"#  c #5D9D5D",
"$  c #63955C",
"%  c #63965C",
"&  c #799957",
"*  c #7A9956",
"=  c #63A15B",
"-  c #68A55A",
";  c #6EA45E",
":  c #6FA958",
">  c #74AC57",
",  c #77AE56",
"<  c #74A85D",
"1  c #7AB055",
"2  c #4D9262",
"3  c #589762",
"4  c #639C62",
"5  c #639D62",
"6  c #649C61",
"7  c #6EA262",
"8  c #79A761",
"9  c #79A762",
"0  c #D1A73F",
"q  c #D2A73F",
"w  c #E7AA39",
"e  c #E8AA39",
"r  c #F3AC37",
"t  c #FCAE34",
"y  c #FDAE34",
"u  c #FEAE34",
"i  c #FEB236",
"p  c #FEB237",
"a  c #FEB539",
"s  c #FEB53A",
"d  c #FEB83C",
"f  c #FEBC3F",
"g  c #9A9E4D",
"h  c #849B53",
"j  c #849B54",
"k  c #8F9C50",
"l  c #8F9C51",
"z  c #909C50",
"x  c #8FA054",
"c  c #8AB459",
"v  c #9AB35F",
"b  c #9DBD5A",
"n  c #BBA445",
"m  c #BCA445",
"M  c #B0A148",
"N  c #BBA748",
"B  c #84AC61",
"V  c #87AF60",
"C  c #87AF61",
"Z  c #84AC62",
"A  c #8FB161",
"S  c #8FB261",
"D  c #8FB262",
"F  c #90B261",
"G  c #9AB761",
"H  c #A5BC61",
"J  c #A6BC61",
"K  c #A5BC62",
"L  c #E8BF4B",
"P  c #FEBF42",
"I  c #ABC459",
"U  c #B1C261",
"Y  c #BBC761",
"T  c #BCC761",
"R  c #FEC042",
"E  c #FDC345",
"W  c #FEC344",
"Q  c #FEC345",
"!  c #FEC648",
"~  c #FECA4A",
"^  c #FECE4D",
"/  c #FED24F",
"(  c #FED150",
")  c #FED553",
"_  c #FED955",
"`  c #FEDC58",
"'  c #FEDD59",
"]  c #FEDF5B",
"[  c #FEE05B",
"{  c #FEE05C",
"}  c #FEE35E",
"|  c #D2D261",
" . c #DDD661",
".. c #E7DC61",
"X. c #E8DC61",
"o. c #FDE761",
"O. c #FEE761",
/* pixels */
"2 2 2 2 2 2 2 2 2 2 2 2 2 2 2 2 2 2 2 2 2 2 2 2 2 2 2 2 2 O.8 2 2 2 2 2 2 2 2 2 2 2 2 2 2 2 2 2 2 2 ",
"m & 2 2 2 2 2 2 2 2 2 2 2 2 B G 2 2 2 2 2 2 2 2 2 2 2 2 2 F 4 8 U 2 2 2 3 m m m g 2 M & 2 2 2 2 2 2 ",
"n & 5 S S S 8 2 2 2 7 B 2 2 B H 2 2 2 2 2 2 8 S S S S 8 2 2 2 8 U 2 j l g y y d E S n & 2 2 D 4 2 2 ",
"2 2 S O.O.O.T 2 2 2 H X.2 2 2 2 2 2 2 2 2 2 Y O.O.O.O.T 2 2 2 2 2 2 0 y y y y ! o.O.6 2 2 2 o.F 2 2 ",
"2 2 S O.O.O.O.O.O.O.O.O.O.O.O.O.O.O.O.O.O.O.O.O.O.O.O.O.O.O.O.( y y y y y y y ~ o.o.o.o.o.o.2 2 2 2 ",
"2 2 5 8 O.O.O.O.O.O.O.O.O.O.O.O.O.O.O.O.O.O.O.O.O.O.O.O.O.O.! s y y y y y y y ~ o.o.o.o.o.o.| Z 2 2 ",
"2 2 2 2 O.O.O.O.O.O.O.O.O.O.O.O.O.O.O.O.O.O.O.O.O.O.O.O.O.( s y y y y y y y P ) o.o.o.o.o.o.o.F 2 2 ",
"2 2 3 5 O.O.O.O.O.O.O.O.O.O.O.O.O.O.O.O.O.O.O.O.O.O.O.O.] y y y y y y i s s ] O.o.o.o.o.o.o.X.Z 2 2 ",
"2 2 S O.O.O.O.O.O.O.O.O.O.O.O.O.O.O.O.O.O.O.O.O.O.O.O.( y y y y y y y ~ O.O.O.O.O.O.O.O.O.o.2 2 2 2 ",
"2 2 5 8 O.O.O.O.O.O.O.O.O.O.O.O.O.O.O.O.O.O.O.O.O.O.O.( y y y y y t ^ ] O.O.O.O.O.O.O.O.O.O.2 G K 2 ",
"2 2 2 2 O.O.O.O.O.O.O.O.O.O.O.O.O.O.O.O.O.O.O.O.O.O.) P y y y d ~ ~ ] O.O.O.O.O.O.O.O.O.O.o.2 Z Z 2 ",
"4 3 3 5 O.O.O.O.O.O.O.O.O.O.O.O.O.O.O.O.O.O.O.O.O.O.Q y y y y Q O.O.O.O.O.O.O.O.O.O.O.O.O.o.2 2 2 2 ",
"O.S S O.O.O.O.O.O.O.O.O.O.O.O.O.O.O.O.O.O.O.O.O.O.O.Q y y y y Q O.O.O.O.O.O.O.O.O.O.O.O.O.o.2 2 2 2 ",
"4 3 S O.O.O.O.O.O.O.O.O.O.O.O.O.O.O.O.O.O.O.O.O.O.O.Q y y y ( O.O.O.O.O.O.O.O.O.O.O.O.O.O.O...Z 2 2 ",
"2 2 7 H O.O.O.O.O.O.O.O.O.O.O.O.O.O.O.O.O.O.O.O.O.~ d y y ~ { O.O.O.O.O.O.O.O.O.O.O.O.O.O.O.O.A 2 2 ",
"2 2 2 2 O.O.O.O.O.O.O.O.O.O.O.O.O.O.O.O.O.O.O.O.O.y y y y O.O.O.O.O.O.O.O.O.O.O.O.O.O.O.O.O.O.A 2 2 ",
"2 2 2 2 O.O.O.O.O.O.O.O.O.O.O.O.O.O.O.O.O.O.O.O.O.i y y y O.O.O.O.O.O.O.O.O.O.O.O.O.O.O.O.O.O.A 2 2 ",
"2 2 2 2 O.O.O.O.O.O.O.O.O.O.O.O.O.O.O.O.O.O.O.O.O.y y R [ O.O.O.O.O.O.O.O.O.O.O.O.O.O.O.O.O.O.A 2 2 ",
"2 F T T O.O.O.O.O.O.O.O.O.O.O.O.O.O.O.O.O.O.O.O.O.y y W O.O.O.O.O.O.O.O.O.O.O.O.O.O.O.O.O.O.S 4 2 2 ",
"2 K  .O.O.O.O.O.O.O.O.O.O.O.O.O.O.O.O.O.O.O.O.O.O.y s ^ O.O.O.O.O.O.O.O.O.O.O.O.O.O.O.O.O.O.2 4 7 2 ",
"2 2 F O.O.O.O.O.O.O.O.O.O.O.O.O.O.O.O.O.O.O.O.O.O.y / O.O.O.O.O.O.O.O.O.O.O.O.O.O.O.O.O.O.O.2 Y Y 2 ",
"1 # 2 2 O.O.O.O.O.O.O.O.O.O.O.O.O.O.O.O.O.O.O.( y y ( O.O.O.O.O.O.O.O.O.O.O.O.O.O.O.O.O.O.O.2 2 2 2 ",
"# = # 2 O.O.O.O.O.O.O.O.O.O.O.O.O.O.O.O.O.O.O.( y ( [ O.O.O.O.O.O.O.O.O.O.O.O.O.O.O.O.O.O.O.2 2 2 2 ",
"# = < F O.O.O.O.O.O.O.O.O.O.O.O.O.O.O.O.O.O.O.( y O.O.O.O.O.O.O.O.O.O.O.O.O.O.O.O.O.O.O.O.O.S 4 2 2 ",
"1 # F O.O.O.O.O.O.O.O.O.O.O.O.O.O.O.O.O.O.O.O./ y O.O.O.O.O.O.O.O.O.O.O.O.O.O.O.O.O.O.O.O.O.O.S 2 2 ",
"2 2 2 2 O.O.O.O.O.O.O.O.O.O.O.O.O.O.O.O.O.O.Q y y O.O.O.O.O.O.O.O.O.O.O.O.O.O.O.O.O.O.O.O.O.O.S 2 2 ",
"2 2 8 T O.O.O.O.O.O.O.O.O.O.O.O.O.O.O.O.O.O.Q f ( O.O.O.O.O.O.O.O.O.O.O.O.O.O.O.O.O.O.O.O.O.S 4 2 2 ",
"2 2 F O.O.O.O.O.O.O.O.O.O.O.O.O.O.O.O.O.O./ f Q O.O.O.O.O.O.O.O.O.O.O.O.O.O.O.O.O.O.O.O.O.O.2 2 2 2 ",
"2 2 S O.O.O.O.O.O.O.O.O.O.O.O.O.O.O.O.O.O.y y Q O.O.O.O.O.O.O.O.O.O.O.O.O.O.O.O.O.O.O.O.O.O.2 2 2 2 ",
"2 2 S O.O.O.O.O.O.O.O.O.O.O.O.O.O.O.O.O.O.y y Q O.O.O.O.O.O.O.O.O.O.O.O.O.O.O.O.O.O.O.O.O.O.2 2 2 2 ",
"2 2 S O.O.O.O.O.O.O.O.O.O.O.O.O.O.O.O.` f y y Q O.O.O.O.O.O.O.O.O.O.O.O.O.O.O.O.O.O.O.O.O.O.| B 2 2 ",
"2 2 8 Y O.O.O.O.O.O.O.O.O.O.O.O.O.O._ ~ y y f ( O.O.O.O.O.O.O.O.O.O.O.O.O.O.O.O.O.O.O.O.O.O.O.D 4 D ",
"2 2 2 2 O.O.O.O.O.O.O.O.O.O.O.O.O.` R y y s ) O.O.O.O.O.O.O.O.O.O.O.O.O.O.O.O.O.O.O.O.O.O.O...C c ..",
"2 2 2 2 O.O.O.O.O.O.O.O.O.O.O.O.O.i y y y O.O.O.O.O.O.O.O.O.O.O.O.O.O.O.O.O.O.O.O.O.O.O.O.O.2 - - 2 ",
"2 G K 2 O.O.O.O.O.O.O.O.O.O.O.` R y y d _ O.O.O.O.O.O.O.O.O.O.O.O.O.O.O.O.O.O.O.O.O.O.O.O.O.2 - > : ",
"2 Z Z 2 O.O.O.O.O.O.O.O.O.O._ W y y R / O.O.O.O.O.O.O.O.O.O.O.O.O.O.O.O.O.O.O.O.O.O.O.O.O.O.K c 1 1 ",
"2 2 3 6 O.O.O.O.O.O.O.O.{ { ! y y s ) O.O.O.O.O.O.O.O.O.O.O.O.O.O.O.O.O.O.O.O.O.O.O.O.O.O.O...b , 1 ",
"2 2 S O.O.O.O.O.O.O.O.[ y y y y t { O.O.O.O.O.O.O.O.O.O.O.O.O.O.O.O.O.O.O.O.O.O.O.O.O.O.O.O.2 2 # 1 ",
"2 2 S O.O.O.O.O.O.R s s y y y f [ O.O.O.O.O.O.O.O.O.O.O.O.O.O.O.O.O.O.O.O.O.O.O.O.O.O.O.O.O.2 2 X   ",
"2 2 7 K O.O.` ~ ~ s y y y y f ( O.O.O.O.O.O.O.O.O.O.O.O.O.O.O.O.O.O.O.O.O.O.O.O.O.O.O.O.O.O.K 7 o . ",
"2 2 2 2 _ _ Q y y y y y P s ( O.O.O.O.O.O.O.O.O.O.O.O.O.O.O.O.O.O.O.O.O.O.O.O.O.O.O.O.O.O.O.O.S 2 2 ",
"2 2 2 2 y y y y y y i s O.O.O.O.O.O.O.O.O.O.O.O.O.O.O.O.O.O.O.O.O.O.O.O.O.O.O.O.O.O.O.O.O.O.O.S 2 2 ",
"2 2 j e y y y y y ) { { O.O.O.O.O.O.O.O.O.O.O.O.O.O.O.O.O.O.O.O.O.O.O.O.O.O.O.O.O.O.O.~ s s p x h w ",
"m & z y y y i i / ` O.O.O.O.O.O.O.O.O.O.O.O.O.O.O.O.O.O.O.O.O.O.O.O.O.O.O.O.O.) W W W s y y y l $ k ",
"q & x f d s i Q O.O.O.O.O.O.O.O.O.O.O.O.O.O.O.O.O.O.O.O.O.O.O.O.O.O.O.O.O._ _ Q y y y y y y q & 2 2 ",
"2 2 F O.O.P Q O.O.O.O.O.O.O.O.O.O.O.O.O.O.O.O.O.O.O.O.O.O.O.O.O.O.O.O.O.[ y y y y y y y y y 2 2 2 2 ",
"2 2 S O.2 2 2 5 O.O.K 2 2 2 2 9 O.5 2 9 O.O.S # 1 2 - I O.2 2 S O.O.O.~ y y y y y y y y y y 2 2 2 2 ",
"2 2 5 S 2 2 2 3 S S 7 3 Y 3 2 3 S 3 2 3 S S 5 3 # - = ; S 2 2 % v Q Q d r k k z z z k l z z 2 2 2 2 ",
"2 2 2 2 2 2 2 2 2 2 2 3 Y 3 2 2 2 2 2 2 2 2 2 2 2 - 3 2 2 z O 2 + m n n n l O 2 $ k + 2 2 2 2 2 2 2 ",
"2 2 2 2 2 2 2 2 2 2 2 2 2 2 2 2 2 2 2 2 2 2 2 2 2 2 2 2 2 i & 2 2 2 2 2 $ y $ 2 & y $ 2 2 2 2 2 2 2 "
};
